<svg width="1856" height="464" viewBox="0 0 1856 464" fill="none" xmlns="http://www.w3.org/2000/svg">
<path d="M232 464C360.13 464 464 360.13 464 232C464 103.87 360.13 0 232 0C103.87 0 0 103.87 0 232C0 360.13 103.87 464 232 464Z" fill="#F15230"/>
<path d="M928 0H464V464H928V0Z" fill="#F15230"/>
<path d="M1160 464C1288.13 464 1392 360.13 1392 232C1392 103.87 1288.13 0 1160 0C1031.87 0 928 103.87 928 232C928 360.13 1031.87 464 1160 464Z" fill="#F15230"/>
<path d="M1856 0H1392V464H1856V0Z" fill="#F15230"/>
</svg>
