<svg width="64" height="64" viewBox="0 0 64 64" fill="none" xmlns="http://www.w3.org/2000/svg">
<path d="M45.3333 53.3333H44.8C40.3196 53.3333 38.0794 53.3333 36.3681 52.4614C34.8628 51.6944 33.6389 50.4705 32.8719 48.9652C32 47.2539 32 45.0137 32 40.5333V23.4666C32 18.9862 32 16.746 32.8719 15.0347C33.6389 13.5294 34.8628 12.3056 36.3681 11.5386C38.0794 10.6666 40.3196 10.6666 44.8 10.6666H45.3333M45.3333 53.3333C45.3333 56.2788 47.7211 58.6666 50.6667 58.6666C53.6122 58.6666 56 56.2788 56 53.3333C56 50.3878 53.6122 48 50.6667 48C47.7211 48 45.3333 50.3878 45.3333 53.3333ZM45.3333 10.6666C45.3333 13.6122 47.7211 16 50.6667 16C53.6122 16 56 13.6122 56 10.6666C56 7.72113 53.6122 5.33331 50.6667 5.33331C47.7211 5.33331 45.3333 7.72113 45.3333 10.6666ZM18.6667 32L45.3333 32M18.6667 32C18.6667 34.9455 16.2789 37.3333 13.3333 37.3333C10.3878 37.3333 8 34.9455 8 32C8 29.0545 10.3878 26.6666 13.3333 26.6666C16.2789 26.6666 18.6667 29.0545 18.6667 32ZM45.3333 32C45.3333 34.9455 47.7211 37.3333 50.6667 37.3333C53.6122 37.3333 56 34.9455 56 32C56 29.0545 53.6122 26.6666 50.6667 26.6666C47.7211 26.6666 45.3333 29.0545 45.3333 32Z" stroke="#E74624" stroke-width="5.33333" stroke-linecap="round" stroke-linejoin="round"/>
</svg>
