<svg width="120" height="60" viewBox="0 0 120 60" fill="none" xmlns="http://www.w3.org/2000/svg">
<g clip-path="url(#clip0_36_19)">
<path d="M5.414 25.7832V14.9396H0V25.785C0 27.759 0.528021 29.6115 1.45027 31.2068C2.39929 32.8538 3.77107 34.2258 5.414 35.1762C7.00699 36.0998 8.85684 36.6285 10.828 36.6285V31.2068C7.83826 31.2068 5.414 28.779 5.414 25.785V25.7832Z" fill="#E74624"/>
<path d="M45.6703 25.7832V24.2326H50.4101V18.8108H45.6703V14.9396H40.2563V25.785C40.2563 27.759 40.7844 29.6115 41.7066 31.2068C42.6556 32.8538 44.0274 34.2258 45.6703 35.1762C47.2633 36.0998 49.1132 36.6285 51.0844 36.6285V31.2068C48.0946 31.2068 45.6703 28.779 45.6703 25.785V25.7832Z" fill="#E74624"/>
<path d="M86.3243 15.0414C84.3532 15.0414 82.5033 15.5702 80.9103 16.4938C79.2656 17.4442 77.8956 18.8179 76.9466 20.4632C76.0244 22.0585 75.4963 23.911 75.4963 25.885C75.4963 27.859 76.0244 29.7115 76.9466 31.3068C77.8956 32.9539 79.2674 34.3258 80.9103 35.2762C82.5033 36.1998 84.3532 36.7286 86.3243 36.7286H91.7384V31.3068H86.3243C83.3346 31.3068 80.9103 28.879 80.9103 25.885C80.9103 22.891 83.3346 20.4632 86.3243 20.4632H91.7384V15.0414H86.3243Z" fill="#E74624"/>
<path d="M35.4006 20.3739C34.4515 18.7268 33.0798 17.3549 31.4368 16.4045C29.8438 15.4809 27.994 14.9521 26.0228 14.9521C24.0517 14.9521 22.2018 15.4809 20.6088 16.4045C18.9641 17.3549 17.5941 18.7286 16.6451 20.3739C15.7228 21.9692 15.1948 23.8217 15.1948 25.7957V36.641H20.6088V25.7957C20.6088 22.8016 23.0331 20.3739 26.0228 20.3739C29.0126 20.3739 31.4368 22.8016 31.4368 25.7957V36.641H36.8508V25.7957C36.8508 23.8217 36.3228 21.9692 35.4006 20.3739Z" fill="#E74624"/>
<path d="M65.9171 15.0218C63.946 15.0218 62.0961 15.5506 60.5031 16.4742C58.8584 17.4246 57.4884 18.7983 56.5394 20.4436C55.6171 22.0389 55.0891 23.8914 55.0891 25.8654C55.0891 27.8394 55.6171 29.6919 56.5394 31.2872C57.4884 32.9342 58.8602 34.3062 60.5031 35.2566C62.0961 36.1802 63.946 36.7089 65.9171 36.7089H71.3311V31.2872H65.9171C62.9274 31.2872 60.5031 28.8594 60.5031 25.8654C60.5031 22.8713 62.9274 20.4436 65.9171 20.4436V25.8654H71.3311V15.0218H65.9171Z" fill="#E74624"/>
<path d="M117.784 20.4454C116.835 18.7983 115.464 17.4263 113.821 16.476C112.228 15.5524 110.378 15.0236 108.407 15.0236C106.435 15.0236 104.586 15.5524 102.993 16.476V9.60004H97.5786V36.7125H102.993V25.8672C102.993 22.8731 105.417 20.4454 108.407 20.4454C111.396 20.4454 113.821 22.8731 113.821 25.8672V36.7125H119.235V25.8672C119.235 23.8932 118.707 22.0407 117.784 20.4454Z" fill="#E74624"/>
<path d="M78.3451 48.2188H77.5406V47.4578C77.1357 47.9812 76.5149 48.3224 75.6747 48.3224C74.2405 48.3224 73.1238 47.1988 73.1238 45.6589C73.1238 44.119 74.2405 43.0007 75.6747 43.0007C76.5167 43.0007 77.1375 43.3472 77.5406 43.8653V43.1043H78.3451V48.2206V48.2188ZM73.9426 45.6589C73.9426 46.7182 74.6864 47.5668 75.771 47.5668C76.8556 47.5668 77.5888 46.745 77.5888 45.6589C77.5888 44.5727 76.8342 43.7563 75.771 43.7563C74.7078 43.7563 73.9426 44.6049 73.9426 45.6589Z" fill="#E74624"/>
<path d="M84.3816 43.8045L83.8643 44.3494C83.4808 43.976 83.0223 43.7545 82.4676 43.7545C81.4418 43.7545 80.6659 44.5548 80.6659 45.6571C80.6659 46.7593 81.4436 47.565 82.4676 47.565C83.0241 47.565 83.52 47.3166 83.8804 46.9647L84.3816 47.5149C83.9178 48.0384 83.2435 48.3206 82.4872 48.3206C80.9174 48.3206 79.8435 47.1755 79.8435 45.6571C79.8435 44.1386 80.9174 42.9989 82.4872 42.9989C83.2418 42.9989 83.9214 43.2793 84.3816 43.8045Z" fill="#E74624"/>
<path d="M90.5004 48.2188H89.6959V47.4578C89.2909 47.9812 88.6702 48.3224 87.83 48.3224C86.3957 48.3224 85.2791 47.1988 85.2791 45.6589C85.2791 44.119 86.3957 43.0007 87.83 43.0007C88.6719 43.0007 89.2927 43.3472 89.6959 43.8653V43.1043H90.5004V48.2206V48.2188ZM86.0978 45.6589C86.0978 46.7182 86.8417 47.5668 87.9263 47.5668C89.0109 47.5668 89.744 46.745 89.744 45.6589C89.744 44.5727 88.9895 43.7563 87.9263 43.7563C86.8631 43.7563 86.0978 44.6049 86.0978 45.6589Z" fill="#E74624"/>
<path d="M96.4191 43.8635V40.439H97.2237V48.2188H96.4191V47.4578C96.0142 47.9812 95.3934 48.3224 94.5532 48.3224C93.119 48.3224 92.0023 47.1988 92.0023 45.6589C92.0023 44.119 93.119 43.0007 94.5532 43.0007C95.3952 43.0007 96.016 43.3473 96.4191 43.8653V43.8635ZM92.8211 45.6571C92.8211 46.7164 93.565 47.565 94.6496 47.565C95.7341 47.565 96.4673 46.7432 96.4673 45.6571C96.4673 44.5709 95.7127 43.7546 94.6496 43.7546C93.5864 43.7546 92.8211 44.6031 92.8211 45.6571Z" fill="#E74624"/>
<path d="M103.658 45.641C103.658 45.7428 103.653 45.8518 103.642 45.9429H99.548C99.6604 47.0451 100.433 47.6132 101.355 47.6132C101.987 47.6132 102.536 47.3702 102.973 46.9701L103.405 47.5203C102.768 48.1312 102.056 48.3206 101.307 48.3206C99.7959 48.3206 98.722 47.2452 98.722 45.6624C98.722 44.0797 99.8013 42.9989 101.257 42.9989C102.713 42.9989 103.647 44.085 103.658 45.641ZM99.5587 45.2891H102.839C102.736 44.3333 102.111 43.717 101.243 43.717C100.299 43.717 99.6889 44.3655 99.5587 45.2891Z" fill="#E74624"/>
<path d="M113.655 45.0461V48.217H112.85V45.3105C112.85 44.3387 112.312 43.7652 111.372 43.7652C110.513 43.7652 109.807 44.3601 109.807 45.3319V48.217H109.003V45.3105C109.003 44.3387 108.464 43.7652 107.529 43.7652C106.671 43.7652 105.965 44.3601 105.965 45.3319V48.217H105.155V43.1007H105.954V43.8295C106.37 43.2186 107.049 42.9971 107.675 42.9971C108.566 42.9971 109.261 43.4026 109.591 44.0725C110.002 43.2775 110.799 42.9971 111.518 42.9971C112.786 42.9971 113.655 43.8081 113.655 45.0443V45.0461Z" fill="#E74624"/>
<path d="M115.842 50.4H114.952L116.857 47.1094L114.509 43.1007H115.41L117.315 46.3091L119.117 43.1007H120.002L115.842 50.4Z" fill="#E74624"/>
</g>
<defs>
<clipPath id="clip0_36_19">
<rect width="120" height="40.8" fill="white" transform="translate(0 9.60001)"/>
</clipPath>
</defs>
</svg>
