<svg width="120" height="60" viewBox="0 0 120 60" fill="none" xmlns="http://www.w3.org/2000/svg">
<g clip-path="url(#clip0_298_888)">
<path d="M5.414 25.7835V14.9399H0V25.7853C0 27.7593 0.528021 29.6118 1.45027 31.2071C2.39929 32.8541 3.77107 34.2261 5.414 35.1765C7.00699 36.1001 8.85684 36.6288 10.828 36.6288V31.2071C7.83826 31.2071 5.414 28.7793 5.414 25.7853V25.7835Z" fill="white"/>
<path d="M45.6703 25.7835V24.2329H50.4101V18.8111H45.6703V14.9399H40.2563V25.7853C40.2563 27.7593 40.7844 29.6118 41.7066 31.2071C42.6556 32.8541 44.0274 34.2261 45.6703 35.1765C47.2633 36.1001 49.1132 36.6288 51.0844 36.6288V31.2071C48.0946 31.2071 45.6703 28.7793 45.6703 25.7853V25.7835Z" fill="white"/>
<path d="M86.3243 15.0415C84.3532 15.0415 82.5033 15.5703 80.9103 16.4939C79.2656 17.4442 77.8956 18.818 76.9466 20.4633C76.0244 22.0586 75.4963 23.9111 75.4963 25.8851C75.4963 27.8591 76.0244 29.7116 76.9466 31.3068C77.8956 32.9539 79.2674 34.3259 80.9103 35.2763C82.5033 36.1998 84.3532 36.7286 86.3243 36.7286H91.7384V31.3068H86.3243C83.3346 31.3068 80.9103 28.8791 80.9103 25.8851C80.9103 22.891 83.3346 20.4633 86.3243 20.4633H91.7384V15.0415H86.3243Z" fill="white"/>
<path d="M35.4006 20.3739C34.4515 18.7269 33.0798 17.3549 31.4368 16.4045C29.8438 15.4809 27.994 14.9521 26.0228 14.9521C24.0517 14.9521 22.2018 15.4809 20.6088 16.4045C18.9641 17.3549 17.5941 18.7286 16.6451 20.3739C15.7228 21.9692 15.1948 23.8217 15.1948 25.7957V36.6411H20.6088V25.7957C20.6088 22.8017 23.0331 20.3739 26.0228 20.3739C29.0126 20.3739 31.4368 22.8017 31.4368 25.7957V36.6411H36.8508V25.7957C36.8508 23.8217 36.3228 21.9692 35.4006 20.3739Z" fill="white"/>
<path d="M65.9171 15.022C63.946 15.022 62.0961 15.5508 60.5031 16.4743C58.8584 17.4247 57.4884 18.7985 56.5394 20.4438C55.6171 22.039 55.0891 23.8915 55.0891 25.8655C55.0891 27.8395 55.6171 29.692 56.5394 31.2873C57.4884 32.9344 58.8602 34.3064 60.5031 35.2567C62.0961 36.1803 63.946 36.7091 65.9171 36.7091H71.3311V31.2873H65.9171C62.9274 31.2873 60.5031 28.8596 60.5031 25.8655C60.5031 22.8715 62.9274 20.4438 65.9171 20.4438V25.8655H71.3311V15.022H65.9171Z" fill="white"/>
<path d="M117.784 20.4454C116.835 18.7984 115.464 17.4264 113.821 16.476C112.228 15.5524 110.378 15.0237 108.407 15.0237C106.435 15.0237 104.586 15.5524 102.993 16.476V9.6001H97.5786V36.7126H102.993V25.8672C102.993 22.8732 105.417 20.4454 108.407 20.4454C111.396 20.4454 113.821 22.8732 113.821 25.8672V36.7126H119.235V25.8672C119.235 23.8932 118.707 22.0407 117.784 20.4454Z" fill="white"/>
<path d="M78.3451 48.2186H77.5406V47.4576C77.1357 47.981 76.5149 48.3222 75.6747 48.3222C74.2405 48.3222 73.1238 47.1986 73.1238 45.6587C73.1238 44.1188 74.2405 43.0005 75.6747 43.0005C76.5167 43.0005 77.1375 43.3471 77.5406 43.8651V43.1041H78.3451V48.2204V48.2186ZM73.9426 45.6587C73.9426 46.718 74.6864 47.5666 75.771 47.5666C76.8556 47.5666 77.5888 46.7448 77.5888 45.6587C77.5888 44.5725 76.8342 43.7561 75.771 43.7561C74.7078 43.7561 73.9426 44.6047 73.9426 45.6587Z" fill="white"/>
<path d="M84.3816 43.8047L83.8643 44.3496C83.4808 43.9762 83.0223 43.7547 82.4676 43.7547C81.4418 43.7547 80.6659 44.555 80.6659 45.6572C80.6659 46.7594 81.4436 47.5651 82.4676 47.5651C83.0241 47.5651 83.52 47.3168 83.8804 46.9649L84.3816 47.5151C83.9178 48.0385 83.2435 48.3208 82.4872 48.3208C80.9174 48.3208 79.8435 47.1757 79.8435 45.6572C79.8435 44.1388 80.9174 42.999 82.4872 42.999C83.2418 42.999 83.9214 43.2795 84.3816 43.8047Z" fill="white"/>
<path d="M90.5004 48.2186H89.6959V47.4576C89.2909 47.981 88.6702 48.3222 87.83 48.3222C86.3957 48.3222 85.2791 47.1986 85.2791 45.6587C85.2791 44.1188 86.3957 43.0005 87.83 43.0005C88.6719 43.0005 89.2927 43.3471 89.6959 43.8651V43.1041H90.5004V48.2204V48.2186ZM86.0978 45.6587C86.0978 46.718 86.8417 47.5666 87.9263 47.5666C89.0109 47.5666 89.744 46.7448 89.744 45.6587C89.744 44.5725 88.9895 43.7561 87.9263 43.7561C86.8631 43.7561 86.0978 44.6047 86.0978 45.6587Z" fill="white"/>
<path d="M96.4193 43.8635V40.439H97.2238V48.2188H96.4193V47.4578C96.0143 47.9812 95.3935 48.3224 94.5534 48.3224C93.1191 48.3224 92.0024 47.1988 92.0024 45.6589C92.0024 44.119 93.1191 43.0007 94.5534 43.0007C95.3953 43.0007 96.0161 43.3473 96.4193 43.8653V43.8635ZM92.8212 45.6571C92.8212 46.7164 93.5651 47.565 94.6497 47.565C95.7343 47.565 96.4674 46.7432 96.4674 45.6571C96.4674 44.5709 95.7129 43.7546 94.6497 43.7546C93.5865 43.7546 92.8212 44.6031 92.8212 45.6571Z" fill="white"/>
<path d="M103.658 45.6411C103.658 45.743 103.653 45.8519 103.642 45.943H99.5481C99.6605 47.0453 100.433 47.6133 101.355 47.6133C101.987 47.6133 102.536 47.3704 102.973 46.9702L103.405 47.5204C102.768 48.1314 102.056 48.3208 101.307 48.3208C99.796 48.3208 98.7222 47.2453 98.7222 45.6626C98.7222 44.0798 99.8014 42.999 101.257 42.999C102.713 42.999 103.647 44.0852 103.658 45.6411ZM99.5588 45.2892H102.839C102.736 44.3335 102.111 43.7172 101.243 43.7172C100.299 43.7172 99.689 44.3656 99.5588 45.2892Z" fill="white"/>
<path d="M113.655 45.0461V48.217H112.85V45.3105C112.85 44.3387 112.312 43.7652 111.372 43.7652C110.513 43.7652 109.807 44.3601 109.807 45.3319V48.217H109.003V45.3105C109.003 44.3387 108.464 43.7652 107.529 43.7652C106.671 43.7652 105.965 44.3601 105.965 45.3319V48.217H105.155V43.1007H105.954V43.8295C106.37 43.2186 107.049 42.9971 107.675 42.9971C108.566 42.9971 109.261 43.4026 109.591 44.0725C110.002 43.2775 110.799 42.9971 111.518 42.9971C112.786 42.9971 113.655 43.8081 113.655 45.0443V45.0461Z" fill="white"/>
<path d="M115.842 50.3999H114.952L116.857 47.1093L114.509 43.1006H115.41L117.315 46.309L119.117 43.1006H120.002L115.842 50.3999Z" fill="white"/>
</g>
<defs>
<clipPath id="clip0_298_888">
<rect width="120" height="40.8" fill="white" transform="translate(0 9.6001)"/>
</clipPath>
</defs>
</svg>
