<svg width="64" height="64" viewBox="0 0 64 64" fill="none" xmlns="http://www.w3.org/2000/svg">
<path d="M32 40C36.4183 40 40 36.4183 40 32C40 27.5817 36.4183 24 32 24C27.5818 24 24 27.5817 24 32C24 36.4183 27.5818 40 32 40Z" stroke="#E74624" stroke-width="5.33333" stroke-linecap="round" stroke-linejoin="round"/>
<path d="M49.9394 39.2727C49.6167 40.0039 49.5205 40.815 49.6631 41.6014C49.8056 42.3878 50.1806 43.1135 50.7394 43.6848L50.8849 43.8303C51.3357 44.2806 51.6933 44.8153 51.9373 45.4039C52.1813 45.9925 52.3069 46.6234 52.3069 47.2606C52.3069 47.8978 52.1813 48.5287 51.9373 49.1173C51.6933 49.7059 51.3357 50.2406 50.8849 50.6909C50.4346 51.1417 49.8999 51.4993 49.3113 51.7433C48.7227 51.9873 48.0918 52.1129 47.4546 52.1129C46.8174 52.1129 46.1865 51.9873 45.5979 51.7433C45.0093 51.4993 44.4746 51.1417 44.0243 50.6909L43.8788 50.5454C43.3075 49.9866 42.5818 49.6116 41.7954 49.4691C41.009 49.3265 40.1979 49.4227 39.4667 49.7454C38.7497 50.0527 38.1382 50.563 37.7075 51.2134C37.2767 51.8638 37.0456 52.6259 37.0425 53.406V53.8182C37.0425 55.1041 36.5316 56.3373 35.6224 57.2466C34.7131 58.1558 33.4799 58.6666 32.194 58.6666C30.9081 58.6666 29.6749 58.1558 28.7656 57.2466C27.8563 56.3373 27.3455 55.1041 27.3455 53.8182V53.6C27.3267 52.7976 27.067 52.0194 26.6001 51.3665C26.1331 50.7137 25.4806 50.2164 24.7273 49.9394C23.9961 49.6167 23.185 49.5204 22.3986 49.663C21.6122 49.8056 20.8865 50.1805 20.3152 50.7394L20.1697 50.8848C19.7194 51.3356 19.1847 51.6932 18.5961 51.9372C18.0075 52.1812 17.3766 52.3068 16.7394 52.3068C16.1023 52.3068 15.4714 52.1812 14.8828 51.9372C14.2942 51.6932 13.7594 51.3356 13.3091 50.8848C12.8583 50.4345 12.5007 49.8998 12.2567 49.3112C12.0127 48.7226 11.8871 48.0917 11.8871 47.4545C11.8871 46.8174 12.0127 46.1864 12.2567 45.5978C12.5007 45.0092 12.8583 44.4745 13.3091 44.0242L13.4546 43.8788C14.0135 43.3074 14.3884 42.5818 14.531 41.7953C14.6736 41.0089 14.5773 40.1978 14.2546 39.4666C13.9473 38.7496 13.437 38.1381 12.7866 37.7074C12.1362 37.2767 11.3741 37.0455 10.594 37.0424H10.1819C8.89596 37.0424 7.66273 36.5316 6.75346 35.6223C5.8442 34.713 5.33337 33.4798 5.33337 32.1939C5.33337 30.908 5.8442 29.6748 6.75346 28.7655C7.66273 27.8563 8.89596 27.3454 10.1819 27.3454H10.4C11.2025 27.3267 11.9807 27.0669 12.6335 26.6C13.2863 26.1331 13.7836 25.4805 14.0606 24.7273C14.3833 23.9961 14.4796 23.185 14.337 22.3986C14.1944 21.6121 13.8195 20.8865 13.2606 20.3151L13.1152 20.1697C12.6644 19.7194 12.3068 19.1846 12.0628 18.5961C11.8188 18.0075 11.6932 17.3765 11.6932 16.7394C11.6932 16.1022 11.8188 15.4713 12.0628 14.8827C12.3068 14.2941 12.6644 13.7594 13.1152 13.3091C13.5655 12.8583 14.1002 12.5007 14.6888 12.2567C15.2774 12.0127 15.9083 11.8871 16.5455 11.8871C17.1827 11.8871 17.8136 12.0127 18.4022 12.2567C18.9908 12.5007 19.5255 12.8583 19.9758 13.3091L20.1213 13.4545C20.6926 14.0134 21.4183 14.3883 22.2047 14.5309C22.9911 14.6735 23.8022 14.5772 24.5334 14.2545H24.7273C25.4443 13.9472 26.0558 13.437 26.4866 12.7866C26.9173 12.1362 27.1484 11.374 27.1516 10.5939V10.1818C27.1516 8.8959 27.6624 7.66267 28.5716 6.7534C29.4809 5.84413 30.7141 5.33331 32 5.33331C33.2859 5.33331 34.5192 5.84413 35.4284 6.7534C36.3377 7.66267 36.8485 8.8959 36.8485 10.1818V10.4C36.8516 11.1801 37.0828 11.9422 37.5135 12.5926C37.9442 13.243 38.5558 13.7533 39.2728 14.0606C40.004 14.3833 40.8151 14.4796 41.6015 14.337C42.3879 14.1944 43.1135 13.8195 43.6849 13.2606L43.8303 13.1151C44.2806 12.6643 44.8154 12.3067 45.404 12.0627C45.9926 11.8187 46.6235 11.6931 47.2606 11.6931C47.8978 11.6931 48.5287 11.8187 49.1173 12.0627C49.7059 12.3067 50.2407 12.6643 50.6909 13.1151C51.1417 13.5654 51.4994 14.1002 51.7434 14.6888C51.9874 15.2774 52.1129 15.9083 52.1129 16.5454C52.1129 17.1826 51.9874 17.8135 51.7434 18.4021C51.4994 18.9907 51.1417 19.5254 50.6909 19.9757L50.5455 20.1212C49.9866 20.6925 49.6117 21.4182 49.4691 22.2046C49.3265 22.991 49.4228 23.8021 49.7455 24.5333V24.7273C50.0528 25.4443 50.5631 26.0558 51.2135 26.4865C51.8639 26.9172 52.626 27.1484 53.4061 27.1515H53.8182C55.1041 27.1515 56.3373 27.6623 57.2466 28.5716C58.1559 29.4808 58.6667 30.7141 58.6667 32C58.6667 33.2859 58.1559 34.5191 57.2466 35.4284C56.3373 36.3376 55.1041 36.8485 53.8182 36.8485H53.6C52.82 36.8516 52.0578 37.0827 51.4074 37.5135C50.757 37.9442 50.2467 38.5557 49.9394 39.2727Z" stroke="#E74624" stroke-width="5.33333" stroke-linecap="round" stroke-linejoin="round"/>
</svg>
